<?xml version="1.0" encoding="utf-8"?>
<!-- Svg Vector Icons : http://www.onlinewebfonts.com/icon -->
<!DOCTYPE svg PUBLIC "-//W3C//DTD SVG 1.1//EN" "http://www.w3.org/Graphics/SVG/1.1/DTD/svg11.dtd">
<svg version="1.1" xmlns="http://www.w3.org/2000/svg" xmlns:xlink="http://www.w3.org/1999/xlink" x="0px" y="0px" viewBox="0 0 1000 1000" enable-background="new 0 0 1000 1000" xml:space="preserve">
<metadata> Svg Vector Icons : http://www.onlinewebfonts.com/icon </metadata>
<g><g transform="translate(0.000000,511.000000) scale(0.100000,-0.100000)"><path d="M8286.8,4680.9c-623.2-153.4-987.6-880.2-769-1534.1c65.2-189.8,124.6-293.4,255-433.4c172.6-187.9,362.4-287.6,615.6-326c400.8-63.3,828.4,174.5,1035.5,571.5c101.6,191.8,140,360.5,140,596.4c-1.9,337.5-115.1,617.5-345.2,845.7C8961.8,4656,8610.8,4761.5,8286.8,4680.9z"/><path d="M3856.9,3758.5c-199.4-44.1-266.6-76.7-1121.8-533.1c-527.4-280-864.9-471.8-914.7-517.8c-46-42.2-105.5-124.6-134.2-184.1c-46-92-53.7-130.4-53.7-270.4c0-140,7.7-178.3,53.7-272.3c126.6-257,398.9-391.2,652-320.3c42.2,11.5,404.6,197.5,809.3,412.3C4048.7,2554.2,4066,2560,4597.2,2560c393.1,0,439.1-9.6,439.1-97.8c0-51.8-32.6-95.9-216.7-283.8C3212.6,529.2,3201.1,517.7,3101.4,279.9c-24.9-59.4-118.9-485.2-224.4-1016.4c-99.7-502.4-184.1-932-189.8-955l-9.6-42.2l-1060.5-5.8l-1058.6-5.7L453.1-1795c-130.4-63.3-234-163-301.1-291.5c-44.1-84.4-51.8-124.6-51.8-262.7c-1.9-134.2,7.7-180.3,46-258.9c59.4-122.7,174.5-237.8,297.2-297.2l95.9-47.9h1390.3H3320l95.9,47.9c117,57.5,237.8,174.5,285.7,278.1c21.1,42.2,126.6,431.5,234,862.9c186,742.1,201.4,790.1,257,839.9c69,61.4,120.8,65.2,203.3,15.3c32.6-19.2,347.1-251.2,701.9-515.8c644.3-483.3,692.3-527.4,776.7-705.7c30.7-67.1,34.5-163,44.1-995.3l9.6-920.5l47.9-95.9c59.4-122.7,174.5-237.8,297.2-297.2c78.6-38.4,124.6-47.9,258.9-47.9c149.6,0,172.6,5.8,283.8,65.2c134.2,72.9,191.8,132.3,268.5,278.1l51.8,97.8v1227.3c0,1208.1,0,1229.2-40.3,1315.5c-23,47.9-69,118.9-105.5,161.1c-36.4,40.3-391.2,318.3-788.2,617.5c-467.9,350.9-734.5,561.9-753.6,598.3c-34.5,69.1-36.4,168.8-1.9,230.1c42.2,74.8,841.9,828.4,910.9,859.1c72.9,30.7,163,21.1,228.2-24.9c23-15.3,178.3-222.4,343.3-460.2c314.5-450.6,395-536.9,586.8-621.3c49.9-21.1,454.5-113.2,899.4-203.3c891.7-180.3,958.8-186,1137.2-101.6c120.8,57.5,237.8,172.6,297.2,295.3c67.1,140,67.1,381.6,0,517.8C9790.2,485.1,9673.2,602,9562,655.7c-47.9,21.1-327.9,88.2-623.2,147.6c-352.9,71-569.6,124.6-632.8,155.3c-189.9,92.1-234,157.3-955,1409.5c-373.9,648.2-709.5,1210-746,1248.4c-36.4,36.4-109.3,88.2-161.1,115.1l-94,46l-1189,3.8C4221.3,3783.5,3947.1,3779.6,3856.9,3758.5z"/></g></g>
</svg>